HIERARCHY
ROOT Hips
{
  OFFSET 52.3943 86.8031 6.04465
  CHANNELS 6 Xposition Yposition Zposition Zrotation Xrotation Yrotation
  JOINT spine
  {
    OFFSET 0 6.84637 0.3937
    CHANNELS 3 Zrotation Xrotation Yrotation
    JOINT spine1
    {
      OFFSET 0 9.49621 0
      CHANNELS 3 Zrotation Xrotation Yrotation
      JOINT spine2
      {
        OFFSET 0 9.09909 0
        CHANNELS 3 Zrotation Xrotation Yrotation
        JOINT Neck
        {
          OFFSET 0 23.3612 1.11378
          CHANNELS 3 Zrotation Xrotation Yrotation
          JOINT Head
          {
            OFFSET 0 7.05802 0
            CHANNELS 3 Zrotation Xrotation Yrotation
            End Site
            {
              OFFSET 0 17.0844 -5.63419
            }
          }
        }
        JOINT RightShoulder
        {
          OFFSET -3.83136 9.82631 -0.533491
          CHANNELS 3 Zrotation Xrotation Yrotation
          JOINT RightArm
          {
            OFFSET 0 12.8881 0
            CHANNELS 3 Zrotation Xrotation Yrotation
            JOINT RightArmRoll
            {
              OFFSET 0 6.50617 0
              CHANNELS 3 Zrotation Xrotation Yrotation
              JOINT RightForeArm
              {
                OFFSET 0 18.9501 0
                CHANNELS 3 Zrotation Xrotation Yrotation
                JOINT RightForeArmRoll
                {
                  OFFSET 0 7.30092 0
                  CHANNELS 3 Zrotation Xrotation Yrotation
                  JOINT RightHand
                  {
                    OFFSET 0 14.6514 0
                    CHANNELS 3 Zrotation Xrotation Yrotation
                    End Site
                    {
                      OFFSET 0 0 0
                    }
                  }
                }
              }
            }
          }
        }
        JOINT LeftShoulder
        {
          OFFSET 3.83136 9.82631 -0.533491
          CHANNELS 3 Zrotation Xrotation Yrotation
          JOINT LeftArm
          {
            OFFSET 0 12.8881 0
            CHANNELS 3 Zrotation Xrotation Yrotation
            JOINT LeftArmRoll
            {
              OFFSET 0 6.50617 0
              CHANNELS 3 Zrotation Xrotation Yrotation
              JOINT LeftForeArm
              {
                OFFSET 0 18.9501 0
                CHANNELS 3 Zrotation Xrotation Yrotation
                JOINT LeftForeArmRoll
                {
                  OFFSET 0 7.30092 0
                  CHANNELS 3 Zrotation Xrotation Yrotation
                  JOINT LeftHand
                  {
                    OFFSET 0 14.6514 0
                    CHANNELS 3 Zrotation Xrotation Yrotation
                    End Site
                    {
                      OFFSET 0 0 0
                    }
                  }
                }
              }
            }
          }
        }
      }
    }
  }
  JOINT RightUpLeg
  {
    OFFSET -6.06837 -1.11278 -0.933477
    CHANNELS 3 Zrotation Xrotation Yrotation
    JOINT RightUpLegRoll
    {
      OFFSET 0 17.1796 0
      CHANNELS 3 Zrotation Xrotation Yrotation
      JOINT RightLeg
      {
        OFFSET 0 -21.2743 0
        CHANNELS 3 Zrotation Xrotation Yrotation
        JOINT RightLegRoll
        {
          OFFSET 0 21.3439 0
          CHANNELS 3 Zrotation Xrotation Yrotation
          JOINT RightFoot
          {
            OFFSET 0 17.7652 0
            CHANNELS 3 Zrotation Xrotation Yrotation
            JOINT RightToeBase
            {
              OFFSET 0 14.8508 0
              CHANNELS 3 Zrotation Xrotation Yrotation
              End Site
              {
                OFFSET 0.0062947 7.19213 -0.829005
              }
            }
          }
        }
      }
    }
  }
  JOINT LeftUpLeg
  {
    OFFSET 6.06837 -1.11278 -0.933477
    CHANNELS 3 Zrotation Xrotation Yrotation
    JOINT LeftUpLegRoll
    {
      OFFSET 0 17.1797 0
      CHANNELS 3 Zrotation Xrotation Yrotation
      JOINT LeftLeg
      {
        OFFSET 0 21.2742 0
        CHANNELS 3 Zrotation Xrotation Yrotation
        JOINT LeftLegRoll
        {
          OFFSET 0 21.5412 0
          CHANNELS 3 Zrotation Xrotation Yrotation
          JOINT LeftFoot
          {
            OFFSET 0 17.5679 0
            CHANNELS 3 Zrotation Xrotation Yrotation
            JOINT LeftToeBase
            {
              OFFSET 0 14.8508 0
              CHANNELS 3 Zrotation Xrotation Yrotation
              End Site
              {
                OFFSET -0.0282102 7.19213 -0.829005
              }
            }
          }
        }
      }
    }
  }
}
MOTION
Frames: 11
Frame Time: 0.00208333
56.2311 86.6452 7.37532 2.98894 1.26003 49.028 3.0406 -0.176339 1.9064 6.07823 3.73513 3.43444 6.04565 5.37366 3.33612 -48.1136 -8.89987 8.13772 27.7247 13.7231 1.693 11.7599 4.89069 15.3872 -146.067 67.9811 -106.9 -3.84102e-006 1.90754e-005 -3.48235e-006 17.1433 20.6611 -5.16198 -9.25019e-007 1.70252e-005 -2.99998 8.02924 -4.9508 0.697119 -98.5769 -12.4881 6.8698 -65.3544 4.6422 17.3373 -6.49947e-007 1.99133e-006 6.02796e-006 -26.2955 70.0844 18.7744 9.22322e-006 -5.31849e-006 3 -8.03061 -4.95164 -0.697811 171.73 6.00177 5.95411 180 7.01571e-015 179.031 173.689 26.6918 -178.848 -3.65305e-006 2.65761e-006 0.469497 -39.0306 79.3658 40.2739 8.24642 26.7968 -3.54865 172.597 14.6845 8.66395 4.54188e-006 -4.6773e-006 -1.5464 -0.316171 -22.6317 0.525354 -3.51011e-006 -1.13456e-006 -1.20651 25.0509 72.535 -24.5473 -8.1365 25.2327 3.48774 
56.2038 86.6453 7.38249 2.95142 1.26204 49.0498 3.02853 -0.176471 1.905 6.05406 3.7345 3.43229 6.02148 5.37308 3.33438 -48.1073 -8.86627 8.16362 27.7264 13.7297 1.70234 11.7589 4.88432 15.3788 -146.204 67.9871 -106.836 -3.84102e-006 1.90754e-005 -3.48235e-006 17.1878 20.6801 -5.16694 -9.25019e-007 1.70252e-005 -2.99998 8.02924 -4.9508 0.697119 -98.6064 -12.4827 6.86801 -65.3172 4.6248 17.3315 -6.49947e-007 1.99133e-006 6.02796e-006 -26.3172 70.0883 18.7927 9.22322e-006 -5.31849e-006 3 -8.03061 -4.95164 -0.697811 171.772 6.02715 5.9308 180 7.0157e-015 179.03 173.68 26.6729 -178.846 -3.65305e-006 2.65761e-006 0.469759 -39.0353 79.357 40.255 8.24622 26.7942 -3.54823 172.624 14.7303 8.66188 4.54188e-006 -4.6773e-006 -1.54352 -0.302438 -22.6414 0.530733 -3.51011e-006 -1.13456e-006 -1.20741 25.0151 72.5238 -24.5287 -8.1365 25.2327 3.48774 
56.1944 86.6477 7.38798 2.91276 1.26389 49.0716 3.01665 -0.177 1.90355 6.03028 3.73308 3.42996 5.99769 5.3717 3.33245 -48.0982 -8.83261 8.18969 27.7261 13.7373 1.71194 11.7592 4.87777 15.3696 -146.342 67.9926 -106.772 -3.84102e-006 1.90754e-005 -3.48235e-006 17.2327 20.6987 -5.17179 -9.25019e-007 1.70252e-005 -2.99998 8.02924 -4.9508 0.697119 -98.6342 -12.4776 6.86632 -65.2815 4.60831 17.3274 -6.49947e-007 1.99133e-006 6.02796e-006 -26.3378 70.0934 18.8106 9.22322e-006 -5.31849e-006 3 -8.03061 -4.95164 -0.697811 171.814 6.05211 5.90635 180 7.0157e-015 179.028 173.671 26.652 -178.844 -3.65305e-006 2.65761e-006 0.470073 -39.0417 79.3483 40.2372 8.24591 26.7901 -3.54722 172.652 14.7772 8.65926 4.54188e-006 -4.6773e-006 -1.54058 -0.288702 -22.6515 0.536124 -3.51011e-006 -1.13456e-006 -1.20831 24.9791 72.5124 -24.5099 -8.1365 25.2327 3.48774 
56.1879 86.651 7.39124 2.87334 1.26549 49.0934 3.00495 -0.177844 1.90208 6.00689 3.73103 3.42753 5.97429 5.36969 3.3304 -48.0869 -8.79884 8.21573 27.7242 13.7459 1.72155 11.7608 4.87106 15.3597 -146.481 67.9977 -106.707 -3.84102e-006 1.90754e-005 -3.48235e-006 17.278 20.7169 -5.17653 -9.25019e-007 1.70252e-005 -2.99998 8.02924 -4.9508 0.697119 -98.6607 -12.4727 6.8647 -65.2471 4.59287 17.3252 -6.49947e-007 1.99133e-006 6.02796e-006 -26.3572 70.0995 18.8279 9.22322e-006 -5.31849e-006 3 -8.03061 -4.95164 -0.697811 171.859 6.07592 5.88107 180 7.0157e-015 179.026 173.662 26.6287 -178.842 -3.65305e-006 2.65761e-006 0.470441 -39.05 79.3398 40.2207 8.24548 26.7843 -3.54576 172.681 14.8246 8.65612 4.54188e-006 -4.6773e-006 -1.53759 -0.274979 -22.6617 0.541521 -3.51011e-006 -1.13456e-006 -1.20921 24.943 72.5009 -24.491 -8.1365 25.2327 3.48774 
56.1684 86.6504 7.39336 2.83357 1.26671 49.115 2.99346 -0.178921 1.90061 5.9839 3.72852 3.42506 5.95129 5.36722 3.32831 -48.0743 -8.76492 8.2416 27.7214 13.7551 1.73091 11.7635 4.86422 15.3491 -146.621 68.0024 -106.641 -3.84102e-006 1.90754e-005 -3.48235e-006 17.3238 20.7347 -5.18114 -9.25019e-007 1.70252e-005 -2.99998 8.02924 -4.9508 0.697119 -98.6862 -12.468 6.86315 -65.2137 4.57859 17.3252 -6.49947e-007 1.99133e-006 6.02796e-006 -26.3754 70.1063 18.8443 9.22322e-006 -5.31849e-006 3 -8.03061 -4.95164 -0.697811 171.904 6.09787 5.85526 180 7.01569e-015 179.024 173.654 26.6024 -178.84 -3.65305e-006 2.65761e-006 0.470867 -39.0602 79.3315 40.2056 8.24492 26.7768 -3.54394 172.71 14.872 8.65252 4.54188e-006 -4.6773e-006 -1.53457 -0.261282 -22.6719 0.546918 -3.51011e-006 -1.13456e-006 -1.2101 24.9071 72.4893 -24.4721 -8.1365 25.2327 3.48774 
56.1596 86.6519 7.39959 2.79383 1.26747 49.1361 2.98217 -0.180151 1.89916 5.96132 3.72571 3.42263 5.92871 5.36445 3.32625 -48.061 -8.7308 8.26712 27.7182 13.765 1.73976 11.7672 4.85728 15.338 -146.762 68.0068 -106.576 -3.84102e-006 1.90754e-005 -3.48235e-006 17.37 20.7521 -5.18564 -9.25019e-007 1.70252e-005 -2.99998 8.02924 -4.9508 0.697119 -98.711 -12.4633 6.86163 -65.181 4.56563 17.3277 -6.49947e-007 1.99133e-006 6.02796e-006 -26.3923 70.1136 18.8597 9.22322e-006 -5.31849e-006 3 -8.03061 -4.95164 -0.697811 171.951 6.11722 5.82922 180 7.01569e-015 179.022 173.646 26.5726 -178.839 -3.65305e-006 2.65761e-006 0.471353 -39.0725 79.3236 40.1923 8.24423 26.7675 -3.54189 172.74 14.9188 8.6485 4.54188e-006 -4.6773e-006 -1.53154 -0.247626 -22.682 0.552309 -3.51011e-006 -1.13456e-006 -1.21098 24.8714 72.4779 -24.4534 -8.1365 25.2327 3.48774 
56.1429 86.6533 7.4052 2.75453 1.26766 49.1567 2.97109 -0.181451 1.89777 5.93916 3.72276 3.4203 5.90654 5.36155 3.3243 -48.0477 -8.69644 8.29212 27.7151 13.7753 1.74785 11.7718 4.85026 15.3265 -146.904 68.0112 -106.51 -3.84102e-006 1.90754e-005 -3.48235e-006 17.4167 20.7691 -5.19 -9.25019e-007 1.70252e-005 -2.99998 8.02924 -4.9508 0.697119 -98.7355 -12.4587 6.86014 -65.1486 4.5541 17.3328 -6.49947e-007 1.99133e-006 6.02796e-006 -26.408 70.1211 18.8738 9.22322e-006 -5.31849e-006 3 -8.03061 -4.95164 -0.697811 171.998 6.13324 5.80324 180 7.01568e-015 179.02 173.638 26.5389 -178.838 -3.65305e-006 2.65761e-006 0.471903 -39.0871 79.3161 40.1809 8.24341 26.7563 -3.53971 172.77 14.9646 8.64411 4.54188e-006 -4.6773e-006 -1.52851 -0.234025 -22.6917 0.557688 -3.51011e-006 -1.13456e-006 -1.21183 24.8361 72.4666 -24.4349 -8.1365 25.2327 3.48774 
56.1207 86.6553 7.41464 2.71606 1.26716 49.1765 2.96022 -0.182741 1.89645 5.91743 3.71985 3.41816 5.8848 5.35867 3.32251 -48.0351 -8.66179 8.31644 27.7127 13.7858 1.75492 11.7772 4.84319 15.3146 -147.048 68.0155 -106.444 -3.84102e-006 1.90754e-005 -3.48235e-006 17.464 20.7857 -5.19424 -9.25019e-007 1.70252e-005 -2.99998 8.02924 -4.9508 0.697119 -98.76 -12.4541 6.85864 -65.1163 4.54414 17.341 -6.49947e-007 1.99133e-006 6.02796e-006 -26.4224 70.1286 18.8864 9.22322e-006 -5.31849e-006 3 -8.03061 -4.95164 -0.697811 172.046 6.14522 5.77764 180 7.01568e-015 179.018 173.63 26.5006 -178.837 -3.65305e-006 2.65761e-006 0.472519 -39.1041 79.309 40.1715 8.24244 26.7431 -3.53752 172.8 15.0086 8.63939 4.54188e-006 -4.6773e-006 -1.52551 -0.220495 -22.701 0.563049 -3.51011e-006 -1.13456e-006 -1.21265 24.8013 72.4555 -24.4169 -8.1365 25.2327 3.48774 
56.1036 86.6532 7.41569 2.67881 1.26588 49.1953 2.94957 -0.18394 1.89523 5.89614 3.71713 3.41627 5.86349 5.35599 3.32097 -48.0241 -8.6268 8.3399 27.7116 13.7965 1.76072 11.7832 4.83611 15.3024 -147.193 68.0199 -106.378 -3.84102e-006 1.90754e-005 -3.48235e-006 17.5118 20.802 -5.19833 -9.25019e-007 1.70252e-005 -2.99998 8.02924 -4.9508 0.697119 -98.7849 -12.4494 6.85712 -65.0837 4.53588 17.3524 -6.49947e-007 1.99133e-006 6.02796e-006 -26.4354 70.1357 18.8972 9.22322e-006 -5.31849e-006 3 -8.03061 -4.95164 -0.697811 172.095 6.15243 5.7527 180 7.01567e-015 179.015 173.623 26.4574 -178.837 -3.65305e-006 2.65761e-006 0.473206 -39.1236 79.3024 40.1643 8.24132 26.7278 -3.53543 172.829 15.0505 8.63439 4.54188e-006 -4.6773e-006 -1.52254 -0.207048 -22.7098 0.568386 -3.51011e-006 -1.13456e-006 -1.21344 24.7671 72.4448 -24.3993 -8.1365 25.2327 3.48774 
56.0604 86.6426 7.39555 2.64318 1.2637 49.213 2.93915 -0.184965 1.89413 5.87529 3.71477 3.4147 5.84263 5.35367 3.31975 -48.0152 -8.59143 8.36233 27.7122 13.8072 1.76499 11.7899 4.82904 15.29 -147.339 68.0245 -106.313 -3.84102e-006 1.90754e-005 -3.48235e-006 17.5602 20.818 -5.20229 -9.25019e-007 1.70252e-005 -2.99998 8.02924 -4.9508 0.697119 -98.8104 -12.4445 6.85556 -65.0507 4.52946 17.3672 -6.49947e-007 1.99133e-006 6.02796e-006 -26.4471 70.1423 18.906 9.22322e-006 -5.31849e-006 3 -8.03061 -4.95164 -0.697811 172.143 6.15414 5.72873 180 7.01567e-015 179.012 173.615 26.4087 -178.837 -3.65305e-006 2.65761e-006 0.473965 -39.1456 79.2963 40.1596 8.24005 26.7104 -3.53355 172.859 15.0897 8.62915 4.54188e-006 -4.6773e-006 -1.51963 -0.193701 -22.7177 0.573694 -3.51011e-006 -1.13456e-006 -1.21418 24.7338 72.4344 -24.3823 -8.1365 25.2327 3.48774 
56.0503 86.6463 7.40718 2.60957 1.26053 49.2294 2.92896 -0.185737 1.89319 5.8549 3.71293 3.41352 5.82222 5.35187 3.31891 -48.0092 -8.55563 8.38358 27.7152 13.8177 1.76748 11.7971 4.822 15.2774 -147.487 68.0293 -106.247 -3.84102e-006 1.90754e-005 -3.48235e-006 17.6091 20.8336 -5.20611 -9.25019e-007 1.70252e-005 -2.99998 8.02924 -4.9508 0.697119 -98.8369 -12.4395 6.85394 -65.0168 4.52501 17.3858 -6.49947e-007 1.99133e-006 6.02796e-006 -26.4573 70.1481 18.9127 9.22322e-006 -5.31849e-006 3 -8.03061 -4.95164 -0.697811 172.192 6.14962 5.70602 180 7.01566e-015 179.008 173.608 26.3541 -178.837 -3.65305e-006 2.65761e-006 0.4748 -39.1704 79.2908 40.1574 8.23862 26.6906 -3.532 172.887 15.1256 8.62372 4.54188e-006 -4.6773e-006 -1.51679 -0.180467 -22.7249 0.578967 -3.51011e-006 -1.13456e-006 -1.21487 24.7015 72.4246 -24.3661 -8.1365 25.2327 3.48774 
